{"asset":{"version":"2.0","generator":"Blockbench 4.8.3 glTF exporter"},"scenes":[{"nodes":[19],"name":"blockbench_export"}],"scene":0,"nodes":[{"rotation":[0.3826834323650898,0,0,0.9238795325112867],"translation":[0,-0.3125,-0.4375],"name":"cube","mesh":0},{"rotation":[0.3826834323650898,0,0,0.9238795325112867],"translation":[0,-0.3125,-0.4375],"name":"cube","mesh":1},{"translation":[0,-0.3125,-0.4375],"name":"cube","mesh":2},{"translation":[0,-0.3125,-0.4375],"name":"cube","mesh":3},{"translation":[0,-0.3125,-0.4375],"name":"cube","mesh":4},{"translation":[0,-0.3125,-0.4375],"name":"cube","mesh":5},{"translation":[0,-0.3125,-0.4375],"name":"cube","mesh":6},{"rotation":[0.3007057995042731,0,0,0.9537169507482269],"translation":[0,-0.3125,-0.4375],"name":"cube","mesh":7},{"rotation":[0.21643961393810288,0,0,0.9762960071199334],"translation":[0,-0.3125,-0.4375],"name":"cube","mesh":8},{"translation":[0,-0.3125,-0.4375],"name":"cube","mesh":9},{"translation":[0,-0.3125,-0.4375],"name":"cube","mesh":10},{"translation":[0,-0.3125,-0.4375],"name":"sphere","mesh":11},{"rotation":[0.08715574274765817,0,0,0.9961946980917455],"name":"cube","mesh":12},{"translation":[0,-0.3125,-0.4375],"name":"mag","children":[12]},{"translation":[0,0.3125,0.4375],"name":"mainraygun","children":[0,1,2,3,4,5,6,7,8,9,10,11,13]},{"name":"cube","mesh":13},{"name":"bullet","children":[15]},{"rotation":[0.08715574274765817,0,0,0.9961946980917455],"name":"cube","mesh":14},{"rotation":[-0.06162841671621935,-0.061628416716219346,0.7044160264027586,0.7044160264027587],"translation":[0,-0.125,0],"name":"mag2","children":[17]},{"children":[14,16,18]}],"bufferViews":[{"buffer":0,"byteOffset":0,"byteLength":288,"target":34962,"byteStride":12},{"buffer":0,"byteOffset":288,"byteLength":288,"target":34962,"byteStride":12},{"buffer":0,"byteOffset":576,"byteLength":192,"target":34962,"byteStride":8},{"buffer":0,"byteOffset":768,"byteLength":72,"target":34963},{"buffer":0,"byteOffset":840,"byteLength":288,"target":34962,"byteStride":12},{"buffer":0,"byteOffset":1128,"byteLength":288,"target":34962,"byteStride":12},{"buffer":0,"byteOffset":1416,"byteLength":192,"target":34962,"byteStride":8},{"buffer":0,"byteOffset":1608,"byteLength":72,"target":34963},{"buffer":0,"byteOffset":1680,"byteLength":288,"target":34962,"byteStride":12},{"buffer":0,"byteOffset":1968,"byteLength":288,"target":34962,"byteStride":12},{"buffer":0,"byteOffset":2256,"byteLength":192,"target":34962,"byteStride":8},{"buffer":0,"byteOffset":2448,"byteLength":72,"target":34963},{"buffer":0,"byteOffset":2520,"byteLength":288,"target":34962,"byteStride":12},{"buffer":0,"byteOffset":2808,"byteLength":288,"target":34962,"byteStride":12},{"buffer":0,"byteOffset":3096,"byteLength":192,"target":34962,"byteStride":8},{"buffer":0,"byteOffset":3288,"byteLength":72,"target":34963},{"buffer":0,"byteOffset":3360,"byteLength":288,"target":34962,"byteStride":12},{"buffer":0,"byteOffset":3648,"byteLength":288,"target":34962,"byteStride":12},{"buffer":0,"byteOffset":3936,"byteLength":192,"target":34962,"byteStride":8},{"buffer":0,"byteOffset":4128,"byteLength":72,"target":34963},{"buffer":0,"byteOffset":4200,"byteLength":288,"target":34962,"byteStride":12},{"buffer":0,"byteOffset":4488,"byteLength":288,"target":34962,"byteStride":12},{"buffer":0,"byteOffset":4776,"byteLength":192,"target":34962,"byteStride":8},{"buffer":0,"byteOffset":4968,"byteLength":72,"target":34963},{"buffer":0,"byteOffset":5040,"byteLength":288,"target":34962,"byteStride":12},{"buffer":0,"byteOffset":5328,"byteLength":288,"target":34962,"byteStride":12},{"buffer":0,"byteOffset":5616,"byteLength":192,"target":34962,"byteStride":8},{"buffer":0,"byteOffset":5808,"byteLength":72,"target":34963},{"buffer":0,"byteOffset":5880,"byteLength":288,"target":34962,"byteStride":12},{"buffer":0,"byteOffset":6168,"byteLength":288,"target":34962,"byteStride":12},{"buffer":0,"byteOffset":6456,"byteLength":192,"target":34962,"byteStride":8},{"buffer":0,"byteOffset":6648,"byteLength":72,"target":34963},{"buffer":0,"byteOffset":6720,"byteLength":288,"target":34962,"byteStride":12},{"buffer":0,"byteOffset":7008,"byteLength":288,"target":34962,"byteStride":12},{"buffer":0,"byteOffset":7296,"byteLength":192,"target":34962,"byteStride":8},{"buffer":0,"byteOffset":7488,"byteLength":72,"target":34963},{"buffer":0,"byteOffset":7560,"byteLength":288,"target":34962,"byteStride":12},{"buffer":0,"byteOffset":7848,"byteLength":288,"target":34962,"byteStride":12},{"buffer":0,"byteOffset":8136,"byteLength":192,"target":34962,"byteStride":8},{"buffer":0,"byteOffset":8328,"byteLength":72,"target":34963},{"buffer":0,"byteOffset":8400,"byteLength":288,"target":34962,"byteStride":12},{"buffer":0,"byteOffset":8688,"byteLength":288,"target":34962,"byteStride":12},{"buffer":0,"byteOffset":8976,"byteLength":192,"target":34962,"byteStride":8},{"buffer":0,"byteOffset":9168,"byteLength":72,"target":34963},{"buffer":0,"byteOffset":9240,"byteLength":3168,"target":34962,"byteStride":12},{"buffer":0,"byteOffset":12408,"byteLength":3168,"target":34962,"byteStride":12},{"buffer":0,"byteOffset":15576,"byteLength":2112,"target":34962,"byteStride":8},{"buffer":0,"byteOffset":17688,"byteLength":720,"target":34963},{"buffer":0,"byteOffset":18408,"byteLength":288,"target":34962,"byteStride":12},{"buffer":0,"byteOffset":18696,"byteLength":288,"target":34962,"byteStride":12},{"buffer":0,"byteOffset":18984,"byteLength":192,"target":34962,"byteStride":8},{"buffer":0,"byteOffset":19176,"byteLength":72,"target":34963},{"buffer":0,"byteOffset":19248,"byteLength":288,"target":34962,"byteStride":12},{"buffer":0,"byteOffset":19536,"byteLength":288,"target":34962,"byteStride":12},{"buffer":0,"byteOffset":19824,"byteLength":192,"target":34962,"byteStride":8},{"buffer":0,"byteOffset":20016,"byteLength":72,"target":34963},{"buffer":0,"byteOffset":20088,"byteLength":288,"target":34962,"byteStride":12},{"buffer":0,"byteOffset":20376,"byteLength":288,"target":34962,"byteStride":12},{"buffer":0,"byteOffset":20664,"byteLength":192,"target":34962,"byteStride":8},{"buffer":0,"byteOffset":20856,"byteLength":72,"target":34963},{"buffer":0,"byteOffset":20928,"byteLength":192},{"buffer":0,"byteOffset":21120,"byteLength":768},{"buffer":0,"byteOffset":21888,"byteLength":164},{"buffer":0,"byteOffset":22052,"byteLength":656},{"buffer":0,"byteOffset":22708,"byteLength":168},{"buffer":0,"byteOffset":22876,"byteLength":504},{"buffer":0,"byteOffset":23380,"byteLength":4},{"buffer":0,"byteOffset":23384,"byteLength":12},{"buffer":0,"byteOffset":23396,"byteLength":80},{"buffer":0,"byteOffset":23476,"byteLength":320},{"buffer":0,"byteOffset":23796,"byteLength":156},{"buffer":0,"byteOffset":23952,"byteLength":468},{"buffer":0,"byteOffset":24420,"byteLength":48},{"buffer":0,"byteOffset":24468,"byteLength":192},{"buffer":0,"byteOffset":24660,"byteLength":112},{"buffer":0,"byteOffset":24772,"byteLength":336},{"buffer":0,"byteOffset":25108,"byteLength":24},{"buffer":0,"byteOffset":25132,"byteLength":72},{"buffer":0,"byteOffset":25204,"byteLength":4},{"buffer":0,"byteOffset":25208,"byteLength":12}],"buffers":[{"byteLength":25220,"uri":"data:application/octet-stream;base64,"}],"accessors":[{"bufferView":0,"componentType":5126,"count":24,"max":[0.25,0.625,0.4375],"min":[0.125,0.5,0.3125],"type":"VEC3"},{"bufferView":1,"componentType":5126,"count":24,"max":[1,1,1],"min":[-1,-1,-1],"type":"VEC3"},{"bufferView":2,"componentType":5126,"count":24,"max":[0.75,0.75],"min":[0.125,0.1875],"type":"VEC2"},{"bufferView":3,"componentType":5123,"count":36,"max":[23],"min":[0],"type":"SCALAR"},{"bufferView":4,"componentType":5126,"count":24,"max":[0.28125,0.65625,0.3125],"min":[0.09375,0.46875,-0.0625],"type":"VEC3"},{"bufferView":5,"componentType":5126,"count":24,"max":[1,1,1],"min":[-1,-1,-1],"type":"VEC3"},{"bufferView":6,"componentType":5126,"count":24,"max":[0.75,0.6875],"min":[0.3125,0.15625],"type":"VEC2"},{"bufferView":7,"componentType":5123,"count":36,"max":[23],"min":[0],"type":"SCALAR"},{"bufferView":8,"componentType":5126,"count":24,"max":[0.3125,0.5625,0.5],"min":[0.0625,0.3125,-0.125],"type":"VEC3"},{"bufferView":9,"componentType":5126,"count":24,"max":[1,1,1],"min":[-1,-1,-1],"type":"VEC3"},{"bufferView":10,"componentType":5126,"count":24,"max":[0.59375,0.6875],"min":[0,0],"type":"VEC2"},{"bufferView":11,"componentType":5123,"count":36,"max":[23],"min":[0],"type":"SCALAR"},{"bufferView":12,"componentType":5126,"count":24,"max":[0.25,0.5,-0.125],"min":[0.125,0.375,-0.5625],"type":"VEC3"},{"bufferView":13,"componentType":5126,"count":24,"max":[1,1,1],"min":[-1,-1,-1],"type":"VEC3"},{"bufferView":14,"componentType":5126,"count":24,"max":[0.8125,0.8125],"min":[0.5625,0.25],"type":"VEC2"},{"bufferView":15,"componentType":5123,"count":36,"max":[23],"min":[0],"type":"SCALAR"},{"bufferView":16,"componentType":5126,"count":24,"max":[0.21875,0.46875,-0.5625],"min":[0.15625,0.40625,-0.8125],"type":"VEC3"},{"bufferView":17,"componentType":5126,"count":24,"max":[1,1,1],"min":[-1,-1,-1],"type":"VEC3"},{"bufferView":18,"componentType":5126,"count":24,"max":[0.875,0.8125],"min":[0.5625,0],"type":"VEC2"},{"bufferView":19,"componentType":5123,"count":36,"max":[23],"min":[0],"type":"SCALAR"},{"bufferView":20,"componentType":5126,"count":24,"max":[0.3125,0.5625,-0.499937504529953],"min":[0.0625,0.3125,-0.5],"type":"VEC3"},{"bufferView":21,"componentType":5126,"count":24,"max":[1,1,1],"min":[-1,-1,-1],"type":"VEC3"},{"bufferView":22,"componentType":5126,"count":24,"max":[0.6875,0.6875],"min":[0,0],"type":"VEC2"},{"bufferView":23,"componentType":5123,"count":36,"max":[23],"min":[0],"type":"SCALAR"},{"bufferView":24,"componentType":5126,"count":24,"max":[0.34375,0.59375,-0.312437504529953],"min":[0.03125,0.28125,-0.3125],"type":"VEC3"},{"bufferView":25,"componentType":5126,"count":24,"max":[1,1,1],"min":[-1,-1,-1],"type":"VEC3"},{"bufferView":26,"componentType":5126,"count":24,"max":[0.46875,0.40625],"min":[0,0],"type":"VEC2"},{"bufferView":27,"componentType":5123,"count":36,"max":[23],"min":[0],"type":"SCALAR"},{"bufferView":28,"componentType":5126,"count":24,"max":[0.25,0.8125,0.25],"min":[0.125,0.625,0.125],"type":"VEC3"},{"bufferView":29,"componentType":5126,"count":24,"max":[1,1,1],"min":[-1,-1,-1],"type":"VEC3"},{"bufferView":30,"componentType":5126,"count":24,"max":[0.78125,0.78125],"min":[0,0.09375],"type":"VEC2"},{"bufferView":31,"componentType":5123,"count":36,"max":[23],"min":[0],"type":"SCALAR"},{"bufferView":32,"componentType":5126,"count":24,"max":[0.21875,0.4375,0.1875],"min":[0.15625,0.3125,0.125],"type":"VEC3"},{"bufferView":33,"componentType":5126,"count":24,"max":[1,1,1],"min":[-1,-1,-1],"type":"VEC3"},{"bufferView":34,"componentType":5126,"count":24,"max":[0.78125,0.8125],"min":[0.21875,0.125],"type":"VEC2"},{"bufferView":35,"componentType":5123,"count":36,"max":[23],"min":[0],"type":"SCALAR"},{"bufferView":36,"componentType":5126,"count":24,"max":[0.34375,0.59375,-0.187437504529953],"min":[0.03125,0.28125,-0.1875],"type":"VEC3"},{"bufferView":37,"componentType":5126,"count":24,"max":[1,1,1],"min":[-1,-1,-1],"type":"VEC3"},{"bufferView":38,"componentType":5126,"count":24,"max":[0.5625,0.5625],"min":[0,0],"type":"VEC2"},{"bufferView":39,"componentType":5123,"count":36,"max":[23],"min":[0],"type":"SCALAR"},{"bufferView":40,"componentType":5126,"count":24,"max":[0.21875,0.65625,-0.6875],"min":[0.15625,0.46875,-0.75],"type":"VEC3"},{"bufferView":41,"componentType":5126,"count":24,"max":[1,1,1],"min":[-1,-1,-1],"type":"VEC3"},{"bufferView":42,"componentType":5126,"count":24,"max":[0.78125,0.84375],"min":[0.125,0.09375],"type":"VEC2"},{"bufferView":43,"componentType":5123,"count":36,"max":[23],"min":[0],"type":"SCALAR"},{"bufferView":44,"componentType":5126,"count":264,"max":[0.21875,0.46875,-0.78125],"min":[0.15625,0.40625,-0.84375],"type":"VEC3"},{"bufferView":45,"componentType":5126,"count":264,"max":[0.9659258127212524,0.9659258127212524,0.9659258127212524],"min":[-0.9659258127212524,-0.9659258127212524,-0.9659258127212524],"type":"VEC3"},{"bufferView":46,"componentType":5126,"count":264,"max":[0.26794999837875366,0.25882500410079956],"min":[0,0],"type":"VEC2"},{"bufferView":47,"componentType":5123,"count":360,"max":[263],"min":[0],"type":"SCALAR"},{"bufferView":48,"componentType":5126,"count":24,"max":[0.25,0.6875,0.1875],"min":[0.125,0.5,-0.125],"type":"VEC3"},{"bufferView":49,"componentType":5126,"count":24,"max":[1,1,1],"min":[-1,-1,-1],"type":"VEC3"},{"bufferView":50,"componentType":5126,"count":24,"max":[0.75,0.8125],"min":[0.25,0],"type":"VEC2"},{"bufferView":51,"componentType":5123,"count":36,"max":[23],"min":[0],"type":"SCALAR"},{"bufferView":52,"componentType":5126,"count":24,"max":[0.21250000596046448,0.4625000059604645,-0.7562500238418579],"min":[0.16249999403953552,0.4124999940395355,-0.8187500238418579],"type":"VEC3"},{"bufferView":53,"componentType":5126,"count":24,"max":[1,1,1],"min":[-1,-1,-1],"type":"VEC3"},{"bufferView":54,"componentType":5126,"count":24,"max":[0.0625,0.0625],"min":[0,0],"type":"VEC2"},{"bufferView":55,"componentType":5123,"count":36,"max":[23],"min":[0],"type":"SCALAR"},{"bufferView":56,"componentType":5126,"count":24,"max":[0.25,0.6875,0.1875],"min":[0.125,0.5,-0.125],"type":"VEC3"},{"bufferView":57,"componentType":5126,"count":24,"max":[1,1,1],"min":[-1,-1,-1],"type":"VEC3"},{"bufferView":58,"componentType":5126,"count":24,"max":[0.75,0.8125],"min":[0.25,0],"type":"VEC2"},{"bufferView":59,"componentType":5123,"count":36,"max":[23],"min":[0],"type":"SCALAR"},{"bufferView":60,"componentType":5126,"count":48,"max":[2.75],"min":[0],"type":"SCALAR"},{"bufferView":61,"componentType":5126,"count":48,"max":[0,0.0036523034796118736,0.0025386447086930275,1],"min":[-0.09352307766675949,-0.0001681754511082545,-0.03909117728471756,0.9948590993881226],"type":"VEC4"},{"bufferView":62,"componentType":5126,"count":41,"max":[3],"min":[0],"type":"SCALAR"},{"bufferView":63,"componentType":5126,"count":41,"max":[0.016150014474987984,0.13516660034656525,0,1],"min":[-0.1230810135602951,-0.2752394676208496,-0.7228950262069702,0.6896300911903381],"type":"VEC4"},{"bufferView":64,"componentType":5126,"count":42,"max":[3],"min":[0],"type":"SCALAR"},{"bufferView":65,"componentType":5126,"count":42,"max":[0.5186265707015991,0.18780092895030975,-0.4375],"min":[0,-0.3125,-0.4375],"type":"VEC3"},{"bufferView":66,"componentType":5126,"count":1,"max":[0],"min":[0],"type":"SCALAR"},{"bufferView":67,"componentType":5126,"count":1,"max":[0,-62500,0],"min":[0,-62500,0],"type":"VEC3"},{"bufferView":68,"componentType":5126,"count":20,"max":[2.75],"min":[0],"type":"SCALAR"},{"bufferView":69,"componentType":5126,"count":20,"max":[0.004640911240130663,-0.08710265159606934,0.9959111213684082,0.7202427983283997],"min":[-0.12699823081493378,-0.2164396196603775,0.6716372966766357,-0.03448623791337013],"type":"VEC4"},{"bufferView":70,"componentType":5126,"count":39,"max":[2.75],"min":[0],"type":"SCALAR"},{"bufferView":71,"componentType":5126,"count":39,"max":[0.4552951455116272,1.1713874340057373,0.25],"min":[-0.032368000596761703,-0.2128559947013855,-0.004623999819159508],"type":"VEC3"},{"bufferView":72,"componentType":5126,"count":12,"max":[0.625],"min":[0],"type":"SCALAR"},{"bufferView":73,"componentType":5126,"count":12,"max":[0.1949046403169632,0,0.04367398843169212,1],"min":[-0.05138428509235382,-0.013873587362468243,-0.06534087657928467,0.9798517823219299],"type":"VEC4"},{"bufferView":74,"componentType":5126,"count":28,"max":[1.5],"min":[0],"type":"SCALAR"},{"bufferView":75,"componentType":5126,"count":28,"max":[0,0,6.8125],"min":[0,0,-12],"type":"VEC3"},{"bufferView":76,"componentType":5126,"count":6,"max":[0.25],"min":[0],"type":"SCALAR"},{"bufferView":77,"componentType":5126,"count":6,"max":[1,1,10],"min":[1,1,1],"type":"VEC3"},{"bufferView":78,"componentType":5126,"count":1,"max":[0.4166666567325592],"min":[0.4166666567325592],"type":"SCALAR"},{"bufferView":79,"componentType":5126,"count":1,"max":[0,-0.125,0],"min":[0,-0.125,0],"type":"VEC3"}],"materials":[{"pbrMetallicRoughness":{"metallicFactor":0,"roughnessFactor":1,"baseColorTexture":{"index":0}},"alphaMode":"MASK","alphaCutoff":0.05,"doubleSided":true},{"pbrMetallicRoughness":{"metallicFactor":0,"roughnessFactor":1,"baseColorTexture":{"index":1}},"alphaMode":"MASK","alphaCutoff":0.05,"doubleSided":true}],"textures":[{"sampler":0,"source":0,"name":"RayGun.png"},{"sampler":1,"source":1,"name":"GLOW.png"}],"samplers":[{"magFilter":9728,"minFilter":9728,"wrapS":33071,"wrapT":33071},{"magFilter":9728,"minFilter":9728,"wrapS":33071,"wrapT":33071}],"images":[{"mimeType":"image/png","uri":"data:image/png;base64,"},{"mimeType":"image/png","uri":"data:image/png;base64,"}],"meshes":[{"primitives":[{"mode":4,"attributes":{"POSITION":0,"NORMAL":1,"TEXCOORD_0":2},"indices":3,"material":0}]},{"primitives":[{"mode":4,"attributes":{"POSITION":4,"NORMAL":5,"TEXCOORD_0":6},"indices":7,"material":0}]},{"primitives":[{"mode":4,"attributes":{"POSITION":8,"NORMAL":9,"TEXCOORD_0":10},"indices":11,"material":0}]},{"primitives":[{"mode":4,"attributes":{"POSITION":12,"NORMAL":13,"TEXCOORD_0":14},"indices":15,"material":0}]},{"primitives":[{"mode":4,"attributes":{"POSITION":16,"NORMAL":17,"TEXCOORD_0":18},"indices":19,"material":0}]},{"primitives":[{"mode":4,"attributes":{"POSITION":20,"NORMAL":21,"TEXCOORD_0":22},"indices":23,"material":0}]},{"primitives":[{"mode":4,"attributes":{"POSITION":24,"NORMAL":25,"TEXCOORD_0":26},"indices":27,"material":0}]},{"primitives":[{"mode":4,"attributes":{"POSITION":28,"NORMAL":29,"TEXCOORD_0":30},"indices":31,"material":0}]},{"primitives":[{"mode":4,"attributes":{"POSITION":32,"NORMAL":33,"TEXCOORD_0":34},"indices":35,"material":0}]},{"primitives":[{"mode":4,"attributes":{"POSITION":36,"NORMAL":37,"TEXCOORD_0":38},"indices":39,"material":0}]},{"primitives":[{"mode":4,"attributes":{"POSITION":40,"NORMAL":41,"TEXCOORD_0":42},"indices":43,"material":0}]},{"primitives":[{"mode":4,"attributes":{"POSITION":44,"NORMAL":45,"TEXCOORD_0":46},"indices":47,"material":1}]},{"primitives":[{"mode":4,"attributes":{"POSITION":48,"NORMAL":49,"TEXCOORD_0":50},"indices":51,"material":0}]},{"primitives":[{"mode":4,"attributes":{"POSITION":52,"NORMAL":53,"TEXCOORD_0":54},"indices":55,"material":1}]},{"primitives":[{"mode":4,"attributes":{"POSITION":56,"NORMAL":57,"TEXCOORD_0":58},"indices":59,"material":0}]}],"animations":[{"name":"reload","samplers":[{"input":60,"output":61,"interpolation":"LINEAR"},{"input":62,"output":63,"interpolation":"LINEAR"},{"input":64,"output":65,"interpolation":"LINEAR"},{"input":66,"output":67,"interpolation":"LINEAR"},{"input":68,"output":69,"interpolation":"LINEAR"},{"input":70,"output":71,"interpolation":"LINEAR"}],"channels":[{"sampler":0,"target":{"node":14,"path":"rotation"}},{"sampler":1,"target":{"node":13,"path":"rotation"}},{"sampler":2,"target":{"node":13,"path":"translation"}},{"sampler":3,"target":{"node":16,"path":"translation"}},{"sampler":4,"target":{"node":18,"path":"rotation"}},{"sampler":5,"target":{"node":18,"path":"translation"}}]},{"name":"shoot","samplers":[{"input":72,"output":73,"interpolation":"LINEAR"},{"input":74,"output":75,"interpolation":"LINEAR"},{"input":76,"output":77,"interpolation":"LINEAR"},{"input":78,"output":79,"interpolation":"LINEAR"}],"channels":[{"sampler":0,"target":{"node":14,"path":"rotation"}},{"sampler":1,"target":{"node":16,"path":"translation"}},{"sampler":2,"target":{"node":16,"path":"scale"}},{"sampler":3,"target":{"node":18,"path":"translation"}}]}]}